<svg width="500" height="500" viewBox="0 0 500 500" xmlns="http://www.w3.org/2000/svg"><rect width="100%" height="100%" fill="#f0f0f0" /><rect x="160" y="30" width="5" height="5" fill="#404040" /><rect x="165" y="30" width="5" height="5" fill="#404040" /><rect x="170" y="30" width="5" height="5" fill="#404040" /><rect x="175" y="30" width="5" height="5" fill="#404040" /><rect x="180" y="30" width="5" height="5" fill="#404040" /><rect x="185" y="30" width="5" height="5" fill="#404040" /><rect x="190" y="30" width="5" height="5" fill="#404040" /><rect x="195" y="30" width="5" height="5" fill="#404040" /><rect x="200" y="30" width="5" height="5" fill="#404040" /><rect x="210" y="30" width="5" height="5" fill="#404040" /><rect x="215" y="30" width="5" height="5" fill="#404040" /><rect x="220" y="30" width="5" height="5" fill="#404040" /><rect x="225" y="30" width="5" height="5" fill="#404040" /><rect x="230" y="30" width="5" height="5" fill="#404040" /><rect x="235" y="30" width="5" height="5" fill="#404040" /><rect x="240" y="30" width="5" height="5" fill="#404040" /><rect x="245" y="30" width="5" height="5" fill="#404040" /><rect x="250" y="30" width="5" height="5" fill="#404040" /><rect x="255" y="30" width="5" height="5" fill="#404040" /><rect x="190" y="35" width="5" height="5" fill="#404040" /><rect x="210" y="35" width="5" height="5" fill="#404040" /><rect x="155" y="40" width="5" height="5" fill="#404040" /><rect x="160" y="40" width="5" height="5" fill="#404040" /><rect x="165" y="40" width="5" height="5" fill="#404040" /><rect x="170" y="40" width="5" height="5" fill="#404040" /><rect x="175" y="40" width="5" height="5" fill="#404040" /><rect x="180" y="40" width="5" height="5" fill="#404040" /><rect x="190" y="40" width="5" height="5" fill="#404040" /><rect x="200" y="40" width="5" height="5" fill="#404040" /><rect x="205" y="40" width="5" height="5" fill="#404040" /><rect x="210" y="40" width="5" height="5" fill="#404040" /><rect x="220" y="40" width="5" height="5" fill="#404040" /><rect x="225" y="40" width="5" height="5" fill="#404040" /><rect x="230" y="40" width="5" height="5" fill="#404040" /><rect x="235" y="40" width="5" height="5" fill="#404040" /><rect x="240" y="40" width="5" height="5" fill="#404040" /><rect x="245" y="40" width="5" height="5" fill="#404040" /><rect x="250" y="40" width="5" height="5" fill="#404040" /><rect x="190" y="45" width="5" height="5" fill="#404040" /><rect x="210" y="45" width="5" height="5" fill="#404040" /><rect x="230" y="45" width="5" height="5" fill="#404040" /><rect x="240" y="45" width="5" height="5" fill="#404040" /><rect x="160" y="50" width="5" height="5" fill="#404040" /><rect x="165" y="50" width="5" height="5" fill="#404040" /><rect x="170" y="50" width="5" height="5" fill="#404040" /><rect x="175" y="50" width="5" height="5" fill="#404040" /><rect x="180" y="50" width="5" height="5" fill="#404040" /><rect x="185" y="50" width="5" height="5" fill="#404040" /><rect x="190" y="50" width="5" height="5" fill="#404040" /><rect x="200" y="50" width="5" height="5" fill="#404040" /><rect x="205" y="50" width="5" height="5" fill="#404040" /><rect x="210" y="50" width="5" height="5" fill="#404040" /><rect x="215" y="50" width="5" height="5" fill="#404040" /><rect x="220" y="50" width="5" height="5" fill="#404040" /><rect x="225" y="50" width="5" height="5" fill="#404040" /><rect x="230" y="50" width="5" height="5" fill="#404040" /><rect x="240" y="50" width="5" height="5" fill="#404040" /><rect x="250" y="50" width="5" height="5" fill="#404040" /><rect x="255" y="50" width="5" height="5" fill="#404040" /><rect x="170" y="55" width="5" height="5" fill="#404040" /><rect x="190" y="55" width="5" height="5" fill="#404040" /><rect x="200" y="55" width="5" height="5" fill="#404040" /><rect x="240" y="55" width="5" height="5" fill="#404040" /><rect x="160" y="60" width="5" height="5" fill="#404040" /><rect x="170" y="60" width="5" height="5" fill="#404040" /><rect x="175" y="60" width="5" height="5" fill="#404040" /><rect x="180" y="60" width="5" height="5" fill="#404040" /><rect x="190" y="60" width="5" height="5" fill="#404040" /><rect x="200" y="60" width="5" height="5" fill="#404040" /><rect x="210" y="60" width="5" height="5" fill="#404040" /><rect x="215" y="60" width="5" height="5" fill="#404040" /><rect x="220" y="60" width="5" height="5" fill="#404040" /><rect x="225" y="60" width="5" height="5" fill="#404040" /><rect x="230" y="60" width="5" height="5" fill="#404040" /><rect x="240" y="60" width="5" height="5" fill="#404040" /><rect x="245" y="60" width="5" height="5" fill="#404040" /><rect x="250" y="60" width="5" height="5" fill="#404040" /><rect x="160" y="65" width="5" height="5" fill="#404040" /><rect x="180" y="65" width="5" height="5" fill="#404040" /><rect x="200" y="65" width="5" height="5" fill="#404040" /><rect x="220" y="65" width="5" height="5" fill="#404040" /><rect x="240" y="65" width="5" height="5" fill="#404040" /><rect x="160" y="70" width="5" height="5" fill="#404040" /><rect x="165" y="70" width="5" height="5" fill="#404040" /><rect x="170" y="70" width="5" height="5" fill="#404040" /><rect x="180" y="70" width="5" height="5" fill="#404040" /><rect x="190" y="70" width="5" height="5" fill="#404040" /><rect x="195" y="70" width="5" height="5" fill="#404040" /><rect x="200" y="70" width="5" height="5" fill="#404040" /><rect x="205" y="70" width="5" height="5" fill="#404040" /><rect x="210" y="70" width="5" height="5" fill="#404040" /><rect x="220" y="70" width="5" height="5" fill="#404040" /><rect x="230" y="70" width="5" height="5" fill="#404040" /><rect x="240" y="70" width="5" height="5" fill="#404040" /><rect x="250" y="70" width="5" height="5" fill="#404040" /><rect x="255" y="70" width="5" height="5" fill="#404040" /><rect x="170" y="75" width="5" height="5" fill="#404040" /><rect x="180" y="75" width="5" height="5" fill="#404040" /><rect x="200" y="75" width="5" height="5" fill="#404040" /><rect x="220" y="75" width="5" height="5" fill="#404040" /><rect x="230" y="75" width="5" height="5" fill="#404040" /><rect x="240" y="75" width="5" height="5" fill="#404040" /><rect x="250" y="75" width="5" height="5" fill="#404040" /><rect x="155" y="80" width="5" height="5" fill="#404040" /><rect x="160" y="80" width="5" height="5" fill="#404040" /><rect x="170" y="80" width="5" height="5" fill="#404040" /><rect x="180" y="80" width="5" height="5" fill="#404040" /><rect x="185" y="80" width="5" height="5" fill="#404040" /><rect x="190" y="80" width="5" height="5" fill="#404040" /><rect x="195" y="80" width="5" height="5" fill="#404040" /><rect x="200" y="80" width="5" height="5" fill="#404040" /><rect x="210" y="80" width="5" height="5" fill="#404040" /><rect x="215" y="80" width="5" height="5" fill="#404040" /><rect x="220" y="80" width="5" height="5" fill="#404040" /><rect x="230" y="80" width="5" height="5" fill="#404040" /><rect x="235" y="80" width="5" height="5" fill="#404040" /><rect x="240" y="80" width="5" height="5" fill="#404040" /><rect x="250" y="80" width="5" height="5" fill="#404040" /><rect x="170" y="85" width="5" height="5" fill="#404040" /><rect x="190" y="85" width="5" height="5" fill="#404040" /><rect x="210" y="85" width="5" height="5" fill="#404040" /><rect x="220" y="85" width="5" height="5" fill="#404040" /><rect x="250" y="85" width="5" height="5" fill="#404040" /><rect x="160" y="90" width="5" height="5" fill="#404040" /><rect x="165" y="90" width="5" height="5" fill="#404040" /><rect x="170" y="90" width="5" height="5" fill="#404040" /><rect x="175" y="90" width="5" height="5" fill="#404040" /><rect x="180" y="90" width="5" height="5" fill="#404040" /><rect x="190" y="90" width="5" height="5" fill="#404040" /><rect x="200" y="90" width="5" height="5" fill="#404040" /><rect x="205" y="90" width="5" height="5" fill="#404040" /><rect x="210" y="90" width="5" height="5" fill="#404040" /><rect x="220" y="90" width="5" height="5" fill="#404040" /><rect x="225" y="90" width="5" height="5" fill="#404040" /><rect x="230" y="90" width="5" height="5" fill="#404040" /><rect x="235" y="90" width="5" height="5" fill="#404040" /><rect x="240" y="90" width="5" height="5" fill="#404040" /><rect x="245" y="90" width="5" height="5" fill="#404040" /><rect x="250" y="90" width="5" height="5" fill="#404040" /><rect x="160" y="95" width="5" height="5" fill="#404040" /><rect x="180" y="95" width="5" height="5" fill="#404040" /><rect x="200" y="95" width="5" height="5" fill="#404040" /><rect x="160" y="100" width="5" height="5" fill="#404040" /><rect x="165" y="100" width="5" height="5" fill="#404040" /><rect x="170" y="100" width="5" height="5" fill="#404040" /><rect x="180" y="100" width="5" height="5" fill="#404040" /><rect x="185" y="100" width="5" height="5" fill="#404040" /><rect x="190" y="100" width="5" height="5" fill="#404040" /><rect x="195" y="100" width="5" height="5" fill="#404040" /><rect x="200" y="100" width="5" height="5" fill="#404040" /><rect x="205" y="100" width="5" height="5" fill="#404040" /><rect x="210" y="100" width="5" height="5" fill="#404040" /><rect x="215" y="100" width="5" height="5" fill="#404040" /><rect x="220" y="100" width="5" height="5" fill="#404040" /><rect x="225" y="100" width="5" height="5" fill="#404040" /><rect x="230" y="100" width="5" height="5" fill="#404040" /><rect x="235" y="100" width="5" height="5" fill="#404040" /><rect x="240" y="100" width="5" height="5" fill="#404040" /><rect x="250" y="100" width="5" height="5" fill="#404040" /><rect x="170" y="105" width="5" height="5" fill="#404040" /><rect x="220" y="105" width="5" height="5" fill="#404040" /><rect x="250" y="105" width="5" height="5" fill="#404040" /><rect x="155" y="110" width="5" height="5" fill="#404040" /><rect x="160" y="110" width="5" height="5" fill="#404040" /><rect x="170" y="110" width="5" height="5" fill="#404040" /><rect x="175" y="110" width="5" height="5" fill="#404040" /><rect x="180" y="110" width="5" height="5" fill="#404040" /><rect x="190" y="110" width="5" height="5" fill="#404040" /><rect x="195" y="110" width="5" height="5" fill="#404040" /><rect x="200" y="110" width="5" height="5" fill="#404040" /><rect x="205" y="110" width="5" height="5" fill="#404040" /><rect x="210" y="110" width="5" height="5" fill="#404040" /><rect x="220" y="110" width="5" height="5" fill="#404040" /><rect x="230" y="110" width="5" height="5" fill="#404040" /><rect x="235" y="110" width="5" height="5" fill="#404040" /><rect x="240" y="110" width="5" height="5" fill="#404040" /><rect x="245" y="110" width="5" height="5" fill="#404040" /><rect x="250" y="110" width="5" height="5" fill="#404040" /><rect x="170" y="115" width="5" height="5" fill="#404040" /><rect x="190" y="115" width="5" height="5" fill="#404040" /><rect x="210" y="115" width="5" height="5" fill="#404040" /><rect x="220" y="115" width="5" height="5" fill="#404040" /><rect x="250" y="115" width="5" height="5" fill="#404040" /><rect x="160" y="120" width="5" height="5" fill="#404040" /><rect x="165" y="120" width="5" height="5" fill="#404040" /><rect x="170" y="120" width="5" height="5" fill="#404040" /><rect x="180" y="120" width="5" height="5" fill="#404040" /><rect x="185" y="120" width="5" height="5" fill="#404040" /><rect x="190" y="120" width="5" height="5" fill="#404040" /><rect x="200" y="120" width="5" height="5" fill="#404040" /><rect x="210" y="120" width="5" height="5" fill="#404040" /><rect x="220" y="120" width="5" height="5" fill="#404040" /><rect x="225" y="120" width="5" height="5" fill="#404040" /><rect x="230" y="120" width="5" height="5" fill="#404040" /><rect x="235" y="120" width="5" height="5" fill="#404040" /><rect x="240" y="120" width="5" height="5" fill="#404040" /><rect x="250" y="120" width="5" height="5" fill="#404040" /><rect x="180" y="125" width="5" height="5" fill="#404040" /><rect x="200" y="125" width="5" height="5" fill="#404040" /><rect x="250" y="125" width="5" height="5" fill="#404040" /><rect x="320" y="25" width="5" height="5" fill="#404040" /><rect x="340" y="25" width="5" height="5" fill="#404040" /><rect x="370" y="25" width="5" height="5" fill="#404040" /><rect x="290" y="30" width="5" height="5" fill="#404040" /><rect x="295" y="30" width="5" height="5" fill="#404040" /><rect x="300" y="30" width="5" height="5" fill="#404040" /><rect x="305" y="30" width="5" height="5" fill="#404040" /><rect x="310" y="30" width="5" height="5" fill="#404040" /><rect x="320" y="30" width="5" height="5" fill="#404040" /><rect x="330" y="30" width="5" height="5" fill="#404040" /><rect x="340" y="30" width="5" height="5" fill="#404040" /><rect x="345" y="30" width="5" height="5" fill="#404040" /><rect x="350" y="30" width="5" height="5" fill="#404040" /><rect x="360" y="30" width="5" height="5" fill="#404040" /><rect x="370" y="30" width="5" height="5" fill="#404040" /><rect x="375" y="30" width="5" height="5" fill="#404040" /><rect x="380" y="30" width="5" height="5" fill="#404040" /><rect x="290" y="35" width="5" height="5" fill="#404040" /><rect x="300" y="35" width="5" height="5" fill="#404040" /><rect x="320" y="35" width="5" height="5" fill="#404040" /><rect x="330" y="35" width="5" height="5" fill="#404040" /><rect x="350" y="35" width="5" height="5" fill="#404040" /><rect x="360" y="35" width="5" height="5" fill="#404040" /><rect x="380" y="35" width="5" height="5" fill="#404040" /><rect x="290" y="40" width="5" height="5" fill="#404040" /><rect x="300" y="40" width="5" height="5" fill="#404040" /><rect x="310" y="40" width="5" height="5" fill="#404040" /><rect x="315" y="40" width="5" height="5" fill="#404040" /><rect x="320" y="40" width="5" height="5" fill="#404040" /><rect x="330" y="40" width="5" height="5" fill="#404040" /><rect x="335" y="40" width="5" height="5" fill="#404040" /><rect x="340" y="40" width="5" height="5" fill="#404040" /><rect x="350" y="40" width="5" height="5" fill="#404040" /><rect x="360" y="40" width="5" height="5" fill="#404040" /><rect x="365" y="40" width="5" height="5" fill="#404040" /><rect x="370" y="40" width="5" height="5" fill="#404040" /><rect x="380" y="40" width="5" height="5" fill="#404040" /><rect x="290" y="45" width="5" height="5" fill="#404040" /><rect x="310" y="45" width="5" height="5" fill="#404040" /><rect x="330" y="45" width="5" height="5" fill="#404040" /><rect x="340" y="45" width="5" height="5" fill="#404040" /><rect x="360" y="45" width="5" height="5" fill="#404040" /><rect x="370" y="45" width="5" height="5" fill="#404040" /><rect x="380" y="45" width="5" height="5" fill="#404040" /><rect x="290" y="50" width="5" height="5" fill="#404040" /><rect x="300" y="50" width="5" height="5" fill="#404040" /><rect x="305" y="50" width="5" height="5" fill="#404040" /><rect x="310" y="50" width="5" height="5" fill="#404040" /><rect x="320" y="50" width="5" height="5" fill="#404040" /><rect x="325" y="50" width="5" height="5" fill="#404040" /><rect x="330" y="50" width="5" height="5" fill="#404040" /><rect x="340" y="50" width="5" height="5" fill="#404040" /><rect x="345" y="50" width="5" height="5" fill="#404040" /><rect x="350" y="50" width="5" height="5" fill="#404040" /><rect x="355" y="50" width="5" height="5" fill="#404040" /><rect x="360" y="50" width="5" height="5" fill="#404040" /><rect x="370" y="50" width="5" height="5" fill="#404040" /><rect x="380" y="50" width="5" height="5" fill="#404040" /><rect x="290" y="55" width="5" height="5" fill="#404040" /><rect x="320" y="55" width="5" height="5" fill="#404040" /><rect x="370" y="55" width="5" height="5" fill="#404040" /><rect x="380" y="55" width="5" height="5" fill="#404040" /><rect x="290" y="60" width="5" height="5" fill="#404040" /><rect x="295" y="60" width="5" height="5" fill="#404040" /><rect x="300" y="60" width="5" height="5" fill="#404040" /><rect x="305" y="60" width="5" height="5" fill="#404040" /><rect x="310" y="60" width="5" height="5" fill="#404040" /><rect x="315" y="60" width="5" height="5" fill="#404040" /><rect x="320" y="60" width="5" height="5" fill="#404040" /><rect x="330" y="60" width="5" height="5" fill="#404040" /><rect x="335" y="60" width="5" height="5" fill="#404040" /><rect x="340" y="60" width="5" height="5" fill="#404040" /><rect x="345" y="60" width="5" height="5" fill="#404040" /><rect x="350" y="60" width="5" height="5" fill="#404040" /><rect x="360" y="60" width="5" height="5" fill="#404040" /><rect x="370" y="60" width="5" height="5" fill="#404040" /><rect x="380" y="60" width="5" height="5" fill="#404040" /><rect x="310" y="65" width="5" height="5" fill="#404040" /><rect x="330" y="65" width="5" height="5" fill="#404040" /><rect x="350" y="65" width="5" height="5" fill="#404040" /><rect x="360" y="65" width="5" height="5" fill="#404040" /><rect x="370" y="65" width="5" height="5" fill="#404040" /><rect x="290" y="70" width="5" height="5" fill="#404040" /><rect x="295" y="70" width="5" height="5" fill="#404040" /><rect x="300" y="70" width="5" height="5" fill="#404040" /><rect x="310" y="70" width="5" height="5" fill="#404040" /><rect x="315" y="70" width="5" height="5" fill="#404040" /><rect x="320" y="70" width="5" height="5" fill="#404040" /><rect x="330" y="70" width="5" height="5" fill="#404040" /><rect x="335" y="70" width="5" height="5" fill="#404040" /><rect x="340" y="70" width="5" height="5" fill="#404040" /><rect x="350" y="70" width="5" height="5" fill="#404040" /><rect x="360" y="70" width="5" height="5" fill="#404040" /><rect x="365" y="70" width="5" height="5" fill="#404040" /><rect x="370" y="70" width="5" height="5" fill="#404040" /><rect x="380" y="70" width="5" height="5" fill="#404040" /><rect x="385" y="70" width="5" height="5" fill="#404040" /><rect x="300" y="75" width="5" height="5" fill="#404040" /><rect x="320" y="75" width="5" height="5" fill="#404040" /><rect x="350" y="75" width="5" height="5" fill="#404040" /><rect x="380" y="75" width="5" height="5" fill="#404040" /><rect x="285" y="80" width="5" height="5" fill="#404040" /><rect x="290" y="80" width="5" height="5" fill="#404040" /><rect x="300" y="80" width="5" height="5" fill="#404040" /><rect x="305" y="80" width="5" height="5" fill="#404040" /><rect x="310" y="80" width="5" height="5" fill="#404040" /><rect x="320" y="80" width="5" height="5" fill="#404040" /><rect x="325" y="80" width="5" height="5" fill="#404040" /><rect x="330" y="80" width="5" height="5" fill="#404040" /><rect x="335" y="80" width="5" height="5" fill="#404040" /><rect x="340" y="80" width="5" height="5" fill="#404040" /><rect x="350" y="80" width="5" height="5" fill="#404040" /><rect x="355" y="80" width="5" height="5" fill="#404040" /><rect x="360" y="80" width="5" height="5" fill="#404040" /><rect x="365" y="80" width="5" height="5" fill="#404040" /><rect x="370" y="80" width="5" height="5" fill="#404040" /><rect x="375" y="80" width="5" height="5" fill="#404040" /><rect x="380" y="80" width="5" height="5" fill="#404040" /><rect x="290" y="85" width="5" height="5" fill="#404040" /><rect x="310" y="85" width="5" height="5" fill="#404040" /><rect x="330" y="85" width="5" height="5" fill="#404040" /><rect x="350" y="85" width="5" height="5" fill="#404040" /><rect x="380" y="85" width="5" height="5" fill="#404040" /><rect x="290" y="90" width="5" height="5" fill="#404040" /><rect x="295" y="90" width="5" height="5" fill="#404040" /><rect x="300" y="90" width="5" height="5" fill="#404040" /><rect x="310" y="90" width="5" height="5" fill="#404040" /><rect x="315" y="90" width="5" height="5" fill="#404040" /><rect x="320" y="90" width="5" height="5" fill="#404040" /><rect x="330" y="90" width="5" height="5" fill="#404040" /><rect x="335" y="90" width="5" height="5" fill="#404040" /><rect x="340" y="90" width="5" height="5" fill="#404040" /><rect x="350" y="90" width="5" height="5" fill="#404040" /><rect x="355" y="90" width="5" height="5" fill="#404040" /><rect x="360" y="90" width="5" height="5" fill="#404040" /><rect x="370" y="90" width="5" height="5" fill="#404040" /><rect x="375" y="90" width="5" height="5" fill="#404040" /><rect x="380" y="90" width="5" height="5" fill="#404040" /><rect x="310" y="95" width="5" height="5" fill="#404040" /><rect x="320" y="95" width="5" height="5" fill="#404040" /><rect x="340" y="95" width="5" height="5" fill="#404040" /><rect x="370" y="95" width="5" height="5" fill="#404040" /><rect x="290" y="100" width="5" height="5" fill="#404040" /><rect x="295" y="100" width="5" height="5" fill="#404040" /><rect x="300" y="100" width="5" height="5" fill="#404040" /><rect x="305" y="100" width="5" height="5" fill="#404040" /><rect x="310" y="100" width="5" height="5" fill="#404040" /><rect x="320" y="100" width="5" height="5" fill="#404040" /><rect x="325" y="100" width="5" height="5" fill="#404040" /><rect x="330" y="100" width="5" height="5" fill="#404040" /><rect x="340" y="100" width="5" height="5" fill="#404040" /><rect x="345" y="100" width="5" height="5" fill="#404040" /><rect x="350" y="100" width="5" height="5" fill="#404040" /><rect x="360" y="100" width="5" height="5" fill="#404040" /><rect x="365" y="100" width="5" height="5" fill="#404040" /><rect x="370" y="100" width="5" height="5" fill="#404040" /><rect x="380" y="100" width="5" height="5" fill="#404040" /><rect x="385" y="100" width="5" height="5" fill="#404040" /><rect x="300" y="105" width="5" height="5" fill="#404040" /><rect x="320" y="105" width="5" height="5" fill="#404040" /><rect x="330" y="105" width="5" height="5" fill="#404040" /><rect x="340" y="105" width="5" height="5" fill="#404040" /><rect x="360" y="105" width="5" height="5" fill="#404040" /><rect x="380" y="105" width="5" height="5" fill="#404040" /><rect x="285" y="110" width="5" height="5" fill="#404040" /><rect x="290" y="110" width="5" height="5" fill="#404040" /><rect x="300" y="110" width="5" height="5" fill="#404040" /><rect x="310" y="110" width="5" height="5" fill="#404040" /><rect x="320" y="110" width="5" height="5" fill="#404040" /><rect x="330" y="110" width="5" height="5" fill="#404040" /><rect x="340" y="110" width="5" height="5" fill="#404040" /><rect x="345" y="110" width="5" height="5" fill="#404040" /><rect x="350" y="110" width="5" height="5" fill="#404040" /><rect x="360" y="110" width="5" height="5" fill="#404040" /><rect x="370" y="110" width="5" height="5" fill="#404040" /><rect x="375" y="110" width="5" height="5" fill="#404040" /><rect x="380" y="110" width="5" height="5" fill="#404040" /><rect x="300" y="115" width="5" height="5" fill="#404040" /><rect x="310" y="115" width="5" height="5" fill="#404040" /><rect x="330" y="115" width="5" height="5" fill="#404040" /><rect x="350" y="115" width="5" height="5" fill="#404040" /><rect x="360" y="115" width="5" height="5" fill="#404040" /><rect x="370" y="115" width="5" height="5" fill="#404040" /><rect x="290" y="120" width="5" height="5" fill="#404040" /><rect x="295" y="120" width="5" height="5" fill="#404040" /><rect x="300" y="120" width="5" height="5" fill="#404040" /><rect x="310" y="120" width="5" height="5" fill="#404040" /><rect x="315" y="120" width="5" height="5" fill="#404040" /><rect x="320" y="120" width="5" height="5" fill="#404040" /><rect x="330" y="120" width="5" height="5" fill="#404040" /><rect x="335" y="120" width="5" height="5" fill="#404040" /><rect x="340" y="120" width="5" height="5" fill="#404040" /><rect x="350" y="120" width="5" height="5" fill="#404040" /><rect x="355" y="120" width="5" height="5" fill="#404040" /><rect x="360" y="120" width="5" height="5" fill="#404040" /><rect x="370" y="120" width="5" height="5" fill="#404040" /><rect x="380" y="120" width="5" height="5" fill="#404040" /><rect x="310" y="125" width="5" height="5" fill="#404040" /><rect x="340" y="125" width="5" height="5" fill="#404040" /><rect x="380" y="125" width="5" height="5" fill="#404040" /><rect x="180" y="285" width="5" height="5" fill="#404040" /><rect x="240" y="285" width="5" height="5" fill="#404040" /><rect x="160" y="290" width="5" height="5" fill="#404040" /><rect x="165" y="290" width="5" height="5" fill="#404040" /><rect x="170" y="290" width="5" height="5" fill="#404040" /><rect x="180" y="290" width="5" height="5" fill="#404040" /><rect x="185" y="290" width="5" height="5" fill="#404040" /><rect x="190" y="290" width="5" height="5" fill="#404040" /><rect x="195" y="290" width="5" height="5" fill="#404040" /><rect x="200" y="290" width="5" height="5" fill="#404040" /><rect x="205" y="290" width="5" height="5" fill="#404040" /><rect x="210" y="290" width="5" height="5" fill="#404040" /><rect x="215" y="290" width="5" height="5" fill="#404040" /><rect x="220" y="290" width="5" height="5" fill="#404040" /><rect x="230" y="290" width="5" height="5" fill="#404040" /><rect x="240" y="290" width="5" height="5" fill="#404040" /><rect x="250" y="290" width="5" height="5" fill="#404040" /><rect x="160" y="295" width="5" height="5" fill="#404040" /><rect x="220" y="295" width="5" height="5" fill="#404040" /><rect x="230" y="295" width="5" height="5" fill="#404040" /><rect x="250" y="295" width="5" height="5" fill="#404040" /><rect x="160" y="300" width="5" height="5" fill="#404040" /><rect x="165" y="300" width="5" height="5" fill="#404040" /><rect x="170" y="300" width="5" height="5" fill="#404040" /><rect x="175" y="300" width="5" height="5" fill="#404040" /><rect x="180" y="300" width="5" height="5" fill="#404040" /><rect x="185" y="300" width="5" height="5" fill="#404040" /><rect x="190" y="300" width="5" height="5" fill="#404040" /><rect x="195" y="300" width="5" height="5" fill="#404040" /><rect x="200" y="300" width="5" height="5" fill="#404040" /><rect x="205" y="300" width="5" height="5" fill="#404040" /><rect x="210" y="300" width="5" height="5" fill="#404040" /><rect x="220" y="300" width="5" height="5" fill="#404040" /><rect x="230" y="300" width="5" height="5" fill="#404040" /><rect x="235" y="300" width="5" height="5" fill="#404040" /><rect x="240" y="300" width="5" height="5" fill="#404040" /><rect x="245" y="300" width="5" height="5" fill="#404040" /><rect x="250" y="300" width="5" height="5" fill="#404040" /><rect x="200" y="305" width="5" height="5" fill="#404040" /><rect x="230" y="305" width="5" height="5" fill="#404040" /><rect x="160" y="310" width="5" height="5" fill="#404040" /><rect x="165" y="310" width="5" height="5" fill="#404040" /><rect x="170" y="310" width="5" height="5" fill="#404040" /><rect x="175" y="310" width="5" height="5" fill="#404040" /><rect x="180" y="310" width="5" height="5" fill="#404040" /><rect x="185" y="310" width="5" height="5" fill="#404040" /><rect x="190" y="310" width="5" height="5" fill="#404040" /><rect x="200" y="310" width="5" height="5" fill="#404040" /><rect x="205" y="310" width="5" height="5" fill="#404040" /><rect x="210" y="310" width="5" height="5" fill="#404040" /><rect x="220" y="310" width="5" height="5" fill="#404040" /><rect x="225" y="310" width="5" height="5" fill="#404040" /><rect x="230" y="310" width="5" height="5" fill="#404040" /><rect x="235" y="310" width="5" height="5" fill="#404040" /><rect x="240" y="310" width="5" height="5" fill="#404040" /><rect x="250" y="310" width="5" height="5" fill="#404040" /><rect x="255" y="310" width="5" height="5" fill="#404040" /><rect x="190" y="315" width="5" height="5" fill="#404040" /><rect x="210" y="315" width="5" height="5" fill="#404040" /><rect x="220" y="315" width="5" height="5" fill="#404040" /><rect x="240" y="315" width="5" height="5" fill="#404040" /><rect x="250" y="315" width="5" height="5" fill="#404040" /><rect x="155" y="320" width="5" height="5" fill="#404040" /><rect x="160" y="320" width="5" height="5" fill="#404040" /><rect x="170" y="320" width="5" height="5" fill="#404040" /><rect x="175" y="320" width="5" height="5" fill="#404040" /><rect x="180" y="320" width="5" height="5" fill="#404040" /><rect x="185" y="320" width="5" height="5" fill="#404040" /><rect x="190" y="320" width="5" height="5" fill="#404040" /><rect x="200" y="320" width="5" height="5" fill="#404040" /><rect x="210" y="320" width="5" height="5" fill="#404040" /><rect x="220" y="320" width="5" height="5" fill="#404040" /><rect x="230" y="320" width="5" height="5" fill="#404040" /><rect x="235" y="320" width="5" height="5" fill="#404040" /><rect x="240" y="320" width="5" height="5" fill="#404040" /><rect x="250" y="320" width="5" height="5" fill="#404040" /><rect x="170" y="325" width="5" height="5" fill="#404040" /><rect x="190" y="325" width="5" height="5" fill="#404040" /><rect x="200" y="325" width="5" height="5" fill="#404040" /><rect x="210" y="325" width="5" height="5" fill="#404040" /><rect x="220" y="325" width="5" height="5" fill="#404040" /><rect x="240" y="325" width="5" height="5" fill="#404040" /><rect x="160" y="330" width="5" height="5" fill="#404040" /><rect x="165" y="330" width="5" height="5" fill="#404040" /><rect x="170" y="330" width="5" height="5" fill="#404040" /><rect x="180" y="330" width="5" height="5" fill="#404040" /><rect x="190" y="330" width="5" height="5" fill="#404040" /><rect x="195" y="330" width="5" height="5" fill="#404040" /><rect x="200" y="330" width="5" height="5" fill="#404040" /><rect x="210" y="330" width="5" height="5" fill="#404040" /><rect x="215" y="330" width="5" height="5" fill="#404040" /><rect x="220" y="330" width="5" height="5" fill="#404040" /><rect x="225" y="330" width="5" height="5" fill="#404040" /><rect x="230" y="330" width="5" height="5" fill="#404040" /><rect x="240" y="330" width="5" height="5" fill="#404040" /><rect x="245" y="330" width="5" height="5" fill="#404040" /><rect x="250" y="330" width="5" height="5" fill="#404040" /><rect x="160" y="335" width="5" height="5" fill="#404040" /><rect x="170" y="335" width="5" height="5" fill="#404040" /><rect x="180" y="335" width="5" height="5" fill="#404040" /><rect x="200" y="335" width="5" height="5" fill="#404040" /><rect x="230" y="335" width="5" height="5" fill="#404040" /><rect x="250" y="335" width="5" height="5" fill="#404040" /><rect x="160" y="340" width="5" height="5" fill="#404040" /><rect x="170" y="340" width="5" height="5" fill="#404040" /><rect x="180" y="340" width="5" height="5" fill="#404040" /><rect x="185" y="340" width="5" height="5" fill="#404040" /><rect x="190" y="340" width="5" height="5" fill="#404040" /><rect x="200" y="340" width="5" height="5" fill="#404040" /><rect x="210" y="340" width="5" height="5" fill="#404040" /><rect x="220" y="340" width="5" height="5" fill="#404040" /><rect x="225" y="340" width="5" height="5" fill="#404040" /><rect x="230" y="340" width="5" height="5" fill="#404040" /><rect x="235" y="340" width="5" height="5" fill="#404040" /><rect x="240" y="340" width="5" height="5" fill="#404040" /><rect x="250" y="340" width="5" height="5" fill="#404040" /><rect x="255" y="340" width="5" height="5" fill="#404040" /><rect x="170" y="345" width="5" height="5" fill="#404040" /><rect x="190" y="345" width="5" height="5" fill="#404040" /><rect x="200" y="345" width="5" height="5" fill="#404040" /><rect x="210" y="345" width="5" height="5" fill="#404040" /><rect x="240" y="345" width="5" height="5" fill="#404040" /><rect x="155" y="350" width="5" height="5" fill="#404040" /><rect x="160" y="350" width="5" height="5" fill="#404040" /><rect x="170" y="350" width="5" height="5" fill="#404040" /><rect x="175" y="350" width="5" height="5" fill="#404040" /><rect x="180" y="350" width="5" height="5" fill="#404040" /><rect x="190" y="350" width="5" height="5" fill="#404040" /><rect x="200" y="350" width="5" height="5" fill="#404040" /><rect x="210" y="350" width="5" height="5" fill="#404040" /><rect x="215" y="350" width="5" height="5" fill="#404040" /><rect x="220" y="350" width="5" height="5" fill="#404040" /><rect x="230" y="350" width="5" height="5" fill="#404040" /><rect x="235" y="350" width="5" height="5" fill="#404040" /><rect x="240" y="350" width="5" height="5" fill="#404040" /><rect x="245" y="350" width="5" height="5" fill="#404040" /><rect x="250" y="350" width="5" height="5" fill="#404040" /><rect x="170" y="355" width="5" height="5" fill="#404040" /><rect x="190" y="355" width="5" height="5" fill="#404040" /><rect x="200" y="355" width="5" height="5" fill="#404040" /><rect x="220" y="355" width="5" height="5" fill="#404040" /><rect x="250" y="355" width="5" height="5" fill="#404040" /><rect x="155" y="360" width="5" height="5" fill="#404040" /><rect x="160" y="360" width="5" height="5" fill="#404040" /><rect x="165" y="360" width="5" height="5" fill="#404040" /><rect x="170" y="360" width="5" height="5" fill="#404040" /><rect x="180" y="360" width="5" height="5" fill="#404040" /><rect x="185" y="360" width="5" height="5" fill="#404040" /><rect x="190" y="360" width="5" height="5" fill="#404040" /><rect x="200" y="360" width="5" height="5" fill="#404040" /><rect x="205" y="360" width="5" height="5" fill="#404040" /><rect x="210" y="360" width="5" height="5" fill="#404040" /><rect x="215" y="360" width="5" height="5" fill="#404040" /><rect x="220" y="360" width="5" height="5" fill="#404040" /><rect x="225" y="360" width="5" height="5" fill="#404040" /><rect x="230" y="360" width="5" height="5" fill="#404040" /><rect x="235" y="360" width="5" height="5" fill="#404040" /><rect x="240" y="360" width="5" height="5" fill="#404040" /><rect x="250" y="360" width="5" height="5" fill="#404040" /><rect x="180" y="365" width="5" height="5" fill="#404040" /><rect x="190" y="365" width="5" height="5" fill="#404040" /><rect x="200" y="365" width="5" height="5" fill="#404040" /><rect x="250" y="365" width="5" height="5" fill="#404040" /><rect x="160" y="370" width="5" height="5" fill="#404040" /><rect x="165" y="370" width="5" height="5" fill="#404040" /><rect x="170" y="370" width="5" height="5" fill="#404040" /><rect x="175" y="370" width="5" height="5" fill="#404040" /><rect x="180" y="370" width="5" height="5" fill="#404040" /><rect x="190" y="370" width="5" height="5" fill="#404040" /><rect x="200" y="370" width="5" height="5" fill="#404040" /><rect x="210" y="370" width="5" height="5" fill="#404040" /><rect x="215" y="370" width="5" height="5" fill="#404040" /><rect x="220" y="370" width="5" height="5" fill="#404040" /><rect x="230" y="370" width="5" height="5" fill="#404040" /><rect x="235" y="370" width="5" height="5" fill="#404040" /><rect x="240" y="370" width="5" height="5" fill="#404040" /><rect x="245" y="370" width="5" height="5" fill="#404040" /><rect x="250" y="370" width="5" height="5" fill="#404040" /><rect x="160" y="375" width="5" height="5" fill="#404040" /><rect x="180" y="375" width="5" height="5" fill="#404040" /><rect x="210" y="375" width="5" height="5" fill="#404040" /><rect x="230" y="375" width="5" height="5" fill="#404040" /><rect x="250" y="375" width="5" height="5" fill="#404040" /><rect x="160" y="380" width="5" height="5" fill="#404040" /><rect x="170" y="380" width="5" height="5" fill="#404040" /><rect x="180" y="380" width="5" height="5" fill="#404040" /><rect x="185" y="380" width="5" height="5" fill="#404040" /><rect x="190" y="380" width="5" height="5" fill="#404040" /><rect x="195" y="380" width="5" height="5" fill="#404040" /><rect x="200" y="380" width="5" height="5" fill="#404040" /><rect x="205" y="380" width="5" height="5" fill="#404040" /><rect x="210" y="380" width="5" height="5" fill="#404040" /><rect x="215" y="380" width="5" height="5" fill="#404040" /><rect x="220" y="380" width="5" height="5" fill="#404040" /><rect x="225" y="380" width="5" height="5" fill="#404040" /><rect x="230" y="380" width="5" height="5" fill="#404040" /><rect x="240" y="380" width="5" height="5" fill="#404040" /><rect x="250" y="380" width="5" height="5" fill="#404040" /><rect x="170" y="385" width="5" height="5" fill="#404040" /><rect x="240" y="385" width="5" height="5" fill="#404040" /><rect x="360" y="285" width="5" height="5" fill="#404040" /><rect x="290" y="290" width="5" height="5" fill="#404040" /><rect x="300" y="290" width="5" height="5" fill="#404040" /><rect x="305" y="290" width="5" height="5" fill="#404040" /><rect x="310" y="290" width="5" height="5" fill="#404040" /><rect x="315" y="290" width="5" height="5" fill="#404040" /><rect x="320" y="290" width="5" height="5" fill="#404040" /><rect x="325" y="290" width="5" height="5" fill="#404040" /><rect x="330" y="290" width="5" height="5" fill="#404040" /><rect x="335" y="290" width="5" height="5" fill="#404040" /><rect x="340" y="290" width="5" height="5" fill="#404040" /><rect x="345" y="290" width="5" height="5" fill="#404040" /><rect x="350" y="290" width="5" height="5" fill="#404040" /><rect x="360" y="290" width="5" height="5" fill="#404040" /><rect x="370" y="290" width="5" height="5" fill="#404040" /><rect x="375" y="290" width="5" height="5" fill="#404040" /><rect x="380" y="290" width="5" height="5" fill="#404040" /><rect x="290" y="295" width="5" height="5" fill="#404040" /><rect x="300" y="295" width="5" height="5" fill="#404040" /><rect x="350" y="295" width="5" height="5" fill="#404040" /><rect x="360" y="295" width="5" height="5" fill="#404040" /><rect x="370" y="295" width="5" height="5" fill="#404040" /><rect x="285" y="300" width="5" height="5" fill="#404040" /><rect x="290" y="300" width="5" height="5" fill="#404040" /><rect x="300" y="300" width="5" height="5" fill="#404040" /><rect x="310" y="300" width="5" height="5" fill="#404040" /><rect x="315" y="300" width="5" height="5" fill="#404040" /><rect x="320" y="300" width="5" height="5" fill="#404040" /><rect x="325" y="300" width="5" height="5" fill="#404040" /><rect x="330" y="300" width="5" height="5" fill="#404040" /><rect x="335" y="300" width="5" height="5" fill="#404040" /><rect x="340" y="300" width="5" height="5" fill="#404040" /><rect x="350" y="300" width="5" height="5" fill="#404040" /><rect x="360" y="300" width="5" height="5" fill="#404040" /><rect x="370" y="300" width="5" height="5" fill="#404040" /><rect x="380" y="300" width="5" height="5" fill="#404040" /><rect x="385" y="300" width="5" height="5" fill="#404040" /><rect x="300" y="305" width="5" height="5" fill="#404040" /><rect x="320" y="305" width="5" height="5" fill="#404040" /><rect x="340" y="305" width="5" height="5" fill="#404040" /><rect x="370" y="305" width="5" height="5" fill="#404040" /><rect x="380" y="305" width="5" height="5" fill="#404040" /><rect x="290" y="310" width="5" height="5" fill="#404040" /><rect x="295" y="310" width="5" height="5" fill="#404040" /><rect x="300" y="310" width="5" height="5" fill="#404040" /><rect x="305" y="310" width="5" height="5" fill="#404040" /><rect x="310" y="310" width="5" height="5" fill="#404040" /><rect x="320" y="310" width="5" height="5" fill="#404040" /><rect x="330" y="310" width="5" height="5" fill="#404040" /><rect x="335" y="310" width="5" height="5" fill="#404040" /><rect x="340" y="310" width="5" height="5" fill="#404040" /><rect x="345" y="310" width="5" height="5" fill="#404040" /><rect x="350" y="310" width="5" height="5" fill="#404040" /><rect x="355" y="310" width="5" height="5" fill="#404040" /><rect x="360" y="310" width="5" height="5" fill="#404040" /><rect x="365" y="310" width="5" height="5" fill="#404040" /><rect x="370" y="310" width="5" height="5" fill="#404040" /><rect x="380" y="310" width="5" height="5" fill="#404040" /><rect x="310" y="315" width="5" height="5" fill="#404040" /><rect x="330" y="315" width="5" height="5" fill="#404040" /><rect x="350" y="315" width="5" height="5" fill="#404040" /><rect x="380" y="315" width="5" height="5" fill="#404040" /><rect x="285" y="320" width="5" height="5" fill="#404040" /><rect x="290" y="320" width="5" height="5" fill="#404040" /><rect x="295" y="320" width="5" height="5" fill="#404040" /><rect x="300" y="320" width="5" height="5" fill="#404040" /><rect x="310" y="320" width="5" height="5" fill="#404040" /><rect x="315" y="320" width="5" height="5" fill="#404040" /><rect x="320" y="320" width="5" height="5" fill="#404040" /><rect x="325" y="320" width="5" height="5" fill="#404040" /><rect x="330" y="320" width="5" height="5" fill="#404040" /><rect x="340" y="320" width="5" height="5" fill="#404040" /><rect x="350" y="320" width="5" height="5" fill="#404040" /><rect x="360" y="320" width="5" height="5" fill="#404040" /><rect x="365" y="320" width="5" height="5" fill="#404040" /><rect x="370" y="320" width="5" height="5" fill="#404040" /><rect x="375" y="320" width="5" height="5" fill="#404040" /><rect x="380" y="320" width="5" height="5" fill="#404040" /><rect x="310" y="325" width="5" height="5" fill="#404040" /><rect x="330" y="325" width="5" height="5" fill="#404040" /><rect x="340" y="325" width="5" height="5" fill="#404040" /><rect x="350" y="325" width="5" height="5" fill="#404040" /><rect x="290" y="330" width="5" height="5" fill="#404040" /><rect x="295" y="330" width="5" height="5" fill="#404040" /><rect x="300" y="330" width="5" height="5" fill="#404040" /><rect x="305" y="330" width="5" height="5" fill="#404040" /><rect x="310" y="330" width="5" height="5" fill="#404040" /><rect x="320" y="330" width="5" height="5" fill="#404040" /><rect x="330" y="330" width="5" height="5" fill="#404040" /><rect x="340" y="330" width="5" height="5" fill="#404040" /><rect x="350" y="330" width="5" height="5" fill="#404040" /><rect x="355" y="330" width="5" height="5" fill="#404040" /><rect x="360" y="330" width="5" height="5" fill="#404040" /><rect x="365" y="330" width="5" height="5" fill="#404040" /><rect x="370" y="330" width="5" height="5" fill="#404040" /><rect x="375" y="330" width="5" height="5" fill="#404040" /><rect x="380" y="330" width="5" height="5" fill="#404040" /><rect x="310" y="335" width="5" height="5" fill="#404040" /><rect x="320" y="335" width="5" height="5" fill="#404040" /><rect x="340" y="335" width="5" height="5" fill="#404040" /><rect x="350" y="335" width="5" height="5" fill="#404040" /><rect x="370" y="335" width="5" height="5" fill="#404040" /><rect x="380" y="335" width="5" height="5" fill="#404040" /><rect x="290" y="340" width="5" height="5" fill="#404040" /><rect x="295" y="340" width="5" height="5" fill="#404040" /><rect x="300" y="340" width="5" height="5" fill="#404040" /><rect x="310" y="340" width="5" height="5" fill="#404040" /><rect x="320" y="340" width="5" height="5" fill="#404040" /><rect x="325" y="340" width="5" height="5" fill="#404040" /><rect x="330" y="340" width="5" height="5" fill="#404040" /><rect x="335" y="340" width="5" height="5" fill="#404040" /><rect x="340" y="340" width="5" height="5" fill="#404040" /><rect x="350" y="340" width="5" height="5" fill="#404040" /><rect x="360" y="340" width="5" height="5" fill="#404040" /><rect x="370" y="340" width="5" height="5" fill="#404040" /><rect x="380" y="340" width="5" height="5" fill="#404040" /><rect x="290" y="345" width="5" height="5" fill="#404040" /><rect x="310" y="345" width="5" height="5" fill="#404040" /><rect x="320" y="345" width="5" height="5" fill="#404040" /><rect x="340" y="345" width="5" height="5" fill="#404040" /><rect x="350" y="345" width="5" height="5" fill="#404040" /><rect x="360" y="345" width="5" height="5" fill="#404040" /><rect x="370" y="345" width="5" height="5" fill="#404040" /><rect x="290" y="350" width="5" height="5" fill="#404040" /><rect x="300" y="350" width="5" height="5" fill="#404040" /><rect x="305" y="350" width="5" height="5" fill="#404040" /><rect x="310" y="350" width="5" height="5" fill="#404040" /><rect x="320" y="350" width="5" height="5" fill="#404040" /><rect x="330" y="350" width="5" height="5" fill="#404040" /><rect x="335" y="350" width="5" height="5" fill="#404040" /><rect x="340" y="350" width="5" height="5" fill="#404040" /><rect x="350" y="350" width="5" height="5" fill="#404040" /><rect x="355" y="350" width="5" height="5" fill="#404040" /><rect x="360" y="350" width="5" height="5" fill="#404040" /><rect x="370" y="350" width="5" height="5" fill="#404040" /><rect x="375" y="350" width="5" height="5" fill="#404040" /><rect x="380" y="350" width="5" height="5" fill="#404040" /><rect x="385" y="350" width="5" height="5" fill="#404040" /><rect x="290" y="355" width="5" height="5" fill="#404040" /><rect x="300" y="355" width="5" height="5" fill="#404040" /><rect x="320" y="355" width="5" height="5" fill="#404040" /><rect x="340" y="355" width="5" height="5" fill="#404040" /><rect x="360" y="355" width="5" height="5" fill="#404040" /><rect x="290" y="360" width="5" height="5" fill="#404040" /><rect x="300" y="360" width="5" height="5" fill="#404040" /><rect x="310" y="360" width="5" height="5" fill="#404040" /><rect x="315" y="360" width="5" height="5" fill="#404040" /><rect x="320" y="360" width="5" height="5" fill="#404040" /><rect x="325" y="360" width="5" height="5" fill="#404040" /><rect x="330" y="360" width="5" height="5" fill="#404040" /><rect x="340" y="360" width="5" height="5" fill="#404040" /><rect x="350" y="360" width="5" height="5" fill="#404040" /><rect x="360" y="360" width="5" height="5" fill="#404040" /><rect x="365" y="360" width="5" height="5" fill="#404040" /><rect x="370" y="360" width="5" height="5" fill="#404040" /><rect x="375" y="360" width="5" height="5" fill="#404040" /><rect x="380" y="360" width="5" height="5" fill="#404040" /><rect x="290" y="365" width="5" height="5" fill="#404040" /><rect x="300" y="365" width="5" height="5" fill="#404040" /><rect x="320" y="365" width="5" height="5" fill="#404040" /><rect x="340" y="365" width="5" height="5" fill="#404040" /><rect x="350" y="365" width="5" height="5" fill="#404040" /><rect x="360" y="365" width="5" height="5" fill="#404040" /><rect x="380" y="365" width="5" height="5" fill="#404040" /><rect x="290" y="370" width="5" height="5" fill="#404040" /><rect x="300" y="370" width="5" height="5" fill="#404040" /><rect x="305" y="370" width="5" height="5" fill="#404040" /><rect x="310" y="370" width="5" height="5" fill="#404040" /><rect x="320" y="370" width="5" height="5" fill="#404040" /><rect x="330" y="370" width="5" height="5" fill="#404040" /><rect x="340" y="370" width="5" height="5" fill="#404040" /><rect x="350" y="370" width="5" height="5" fill="#404040" /><rect x="355" y="370" width="5" height="5" fill="#404040" /><rect x="360" y="370" width="5" height="5" fill="#404040" /><rect x="370" y="370" width="5" height="5" fill="#404040" /><rect x="380" y="370" width="5" height="5" fill="#404040" /><rect x="290" y="375" width="5" height="5" fill="#404040" /><rect x="310" y="375" width="5" height="5" fill="#404040" /><rect x="330" y="375" width="5" height="5" fill="#404040" /><rect x="340" y="375" width="5" height="5" fill="#404040" /><rect x="360" y="375" width="5" height="5" fill="#404040" /><rect x="370" y="375" width="5" height="5" fill="#404040" /><rect x="380" y="375" width="5" height="5" fill="#404040" /><rect x="290" y="380" width="5" height="5" fill="#404040" /><rect x="300" y="380" width="5" height="5" fill="#404040" /><rect x="305" y="380" width="5" height="5" fill="#404040" /><rect x="310" y="380" width="5" height="5" fill="#404040" /><rect x="315" y="380" width="5" height="5" fill="#404040" /><rect x="320" y="380" width="5" height="5" fill="#404040" /><rect x="325" y="380" width="5" height="5" fill="#404040" /><rect x="330" y="380" width="5" height="5" fill="#404040" /><rect x="340" y="380" width="5" height="5" fill="#404040" /><rect x="345" y="380" width="5" height="5" fill="#404040" /><rect x="350" y="380" width="5" height="5" fill="#404040" /><rect x="360" y="380" width="5" height="5" fill="#404040" /><rect x="370" y="380" width="5" height="5" fill="#404040" /><rect x="380" y="380" width="5" height="5" fill="#404040" /><rect x="290" y="385" width="5" height="5" fill="#404040" /><rect x="350" y="385" width="5" height="5" fill="#404040" /><rect x="370" y="385" width="5" height="5" fill="#404040" /></svg>